<svg width="14" height="20" xmlns="http://www.w3.org/2000/svg" fill="none">

 <g>
  <title>Layer 1</title>
  <path id="svg_13" fill="#49AA26" d="m13.60205,13.88989c0,0.7807 -0.226,1.5146 -0.678,2.2016c-0.435,0.687 -1.086,1.2648 -1.955,1.7332c-0.851,0.4684 -1.864,0.7495 -3.04,0.8432l0,1.8971l-1.765,0l0,-1.8971c-1.701,-0.1406 -3.076,-0.6012 -4.126,-1.3819c-1.05,-0.7807 -1.575,-1.8112 -1.575,-3.0916l3.312,0c0.055,0.6089 0.281,1.1164 0.679,1.5224c0.398,0.3903 0.968,0.6402 1.71,0.7495l0,-5.1527c-1.212,-0.2655 -2.199,-0.5309 -2.959,-0.7964c-0.76,-0.281 -1.411,-0.7182 -1.954,-1.3116c-0.525,-0.5933 -0.788,-1.4052 -0.788,-2.4358c0,-1.29596 0.525,-2.36554 1.575,-3.20871c1.05,-0.85878 2.425,-1.35843 4.126,-1.49896l0,-1.89713l1.765,0l0,1.89713c1.592,0.12491 2.868,0.56211 3.827,1.31159c0.978,0.73387 1.53,1.7488 1.656,3.04478l-3.312,0c-0.054,-0.48404 -0.271,-0.91343 -0.651,-1.28817c-0.38,-0.39036 -0.887,-0.6558 -1.52,-0.79633l0,5.059c1.212,0.2498 2.198,0.5153 2.959,0.7963c0.76,0.2655 1.402,0.6949 1.927,1.2882c0.525,0.5777 0.787,1.3819 0.787,2.4124zm-9.99,-7.2606c0,0.6402 0.218,1.1398 0.652,1.499c0.452,0.3591 1.086,0.6479 1.9,0.8665l0,-4.73107c-0.778,0.07808 -1.402,0.3201 -1.873,0.72607c-0.452,0.40597 -0.679,0.95247 -0.679,1.6395zm4.317,9.837c0.796,-0.1093 1.42,-0.3826 1.873,-0.8198c0.452,-0.4528 0.678,-0.9915 0.678,-1.6161c0,-0.6245 -0.226,-1.1086 -0.678,-1.4521c-0.435,-0.3591 -1.059,-0.648 -1.873,-0.8666l0,4.7546z"/>
 </g>
</svg>